<svg width="28" height="27" viewBox="0 0 28 27" fill="none" xmlns="http://www.w3.org/2000/svg">
<path fill-rule="evenodd" clip-rule="evenodd" d="M1.625 0H26.375C26.9937 0 27.5 0.50625 27.5 1.125V25.875C27.5 26.4937 26.9937 27 26.375 27H1.625C1.00625 27 0.5 26.4937 0.5 25.875V1.125C0.5 0.50625 1.00625 0 1.625 0ZM4.49376 23.0062H8.48751V10.125H4.49376V23.0062ZM6.51876 8.38118C5.22501 8.38118 4.21251 7.36868 4.21251 6.07493C4.21251 4.78118 5.22501 3.76868 6.51876 3.76868C7.81251 3.76868 8.82501 4.78118 8.82501 6.07493C8.82501 7.31243 7.81251 8.38118 6.51876 8.38118ZM19.5125 23.0063H23.45V15.9188C23.45 12.4313 22.7188 9.78754 18.6688 9.78754C16.7563 9.78754 15.4063 10.8563 14.9 11.8688H14.8438V10.125H11.0188V23.0063H15.0125V16.65C15.0125 14.9625 15.35 13.3313 17.4313 13.3313C19.5125 13.3313 19.5125 15.2438 19.5125 16.7625V23.0063Z" fill="#7D818D"/>
</svg>
