<svg width="28" height="27" viewBox="0 0 28 27" fill="none" xmlns="http://www.w3.org/2000/svg">
<path fill-rule="evenodd" clip-rule="evenodd" d="M8.43406 0.081C9.87406 0.01575 10.3336 0 14 0C17.6664 0 18.1259 0.01575 19.5659 0.081C21.7608 0.181125 23.6874 0.718875 25.2342 2.26575C26.7817 3.81319 27.3189 5.74031 27.419 7.93406C27.4842 9.37406 27.5 9.83362 27.5 13.5C27.5 17.1664 27.4842 17.6259 27.419 19.0659C27.3189 21.2608 26.7811 23.1874 25.2342 24.7342C23.6868 26.2817 21.7591 26.8189 19.5659 26.919C18.1259 26.9842 17.6664 27 14 27C10.3336 27 9.87406 26.9842 8.43406 26.919C6.23919 26.8189 4.31262 26.2811 2.76575 24.7342C1.21831 23.1868 0.681125 21.2597 0.581 19.0659C0.51575 17.6259 0.5 17.1664 0.5 13.5C0.5 9.83362 0.51575 9.37406 0.581 7.93406C0.681125 5.73919 1.21887 3.81262 2.76575 2.26575C4.31319 0.718312 6.24031 0.181125 8.43406 0.081ZM19.4551 2.51094C18.0314 2.44569 17.6045 2.43219 14 2.43219C10.3955 2.43219 9.96855 2.44625 8.54486 2.51094C7.00867 2.58125 5.58274 2.88894 4.48586 3.98582C3.38899 5.08269 3.0813 6.50863 3.01099 8.04482C2.94574 9.4685 2.93224 9.89544 2.93224 13.4999C2.93224 17.1044 2.9463 17.5314 3.01099 18.9551C3.0813 20.4913 3.38899 21.9172 4.48586 23.0141C5.58274 24.1109 7.00867 24.4186 8.54486 24.4889C9.96799 24.5542 10.3949 24.5677 14 24.5677C17.605 24.5677 18.032 24.5536 19.4551 24.4889C20.9913 24.4186 22.4172 24.1109 23.5141 23.0141C24.611 21.9172 24.9187 20.4913 24.989 18.9551C25.0542 17.5314 25.0677 17.1044 25.0677 13.4999C25.0677 9.89544 25.0537 9.4685 24.989 8.04482C24.9187 6.50863 24.611 5.08269 23.5141 3.98582C22.4172 2.88894 20.9913 2.58125 19.4551 2.51094Z" fill="#7D818D"/>
</svg>
